<svg xmlns="http://www.w3.org/2000/svg" style="display:none">
  <symbol id="stk" viewBox="0 0 24 24">
    <path d="M12 2.5 5 5.4v5.7c0 4.4 2.9 8.5 7 10.1 4.1-1.6 7-5.7 7-10.1V5.4l-7-2.9Z" fill="none" stroke="currentColor" stroke-width="1.8" stroke-linejoin="round"/>
    <path d="m9 12 2 2 4-5" fill="none" stroke="currentColor" stroke-width="1.8" stroke-linecap="round" stroke-linejoin="round"/>
  </symbol>
  <symbol id="vignette" viewBox="0 0 24 24">
    <path d="M5 21 9 3M19 21 15 3M3 9h18M2.5 14h19" fill="none" stroke="currentColor" stroke-width="1.8" stroke-linecap="round"/>
    <path d="M11 3h2M10 21h4" fill="none" stroke="currentColor" stroke-width="1.8" stroke-linecap="round"/>
  </symbol>
  <symbol id="liability" viewBox="0 0 24 24">
    <path d="M5 12a7 7 0 0 1 14 0H5Z" fill="none" stroke="currentColor" stroke-width="1.8" stroke-linejoin="round"/>
    <path d="M12 5V3M12 12v8M9.5 20h5" fill="none" stroke="currentColor" stroke-width="1.8" stroke-linecap="round"/>
  </symbol>
  <symbol id="casco" viewBox="0 0 24 24">
    <path d="M12 2.5 5 5.4v5.7c0 4.4 2.9 8.5 7 10.1 4.1-1.6 7-5.7 7-10.1V5.4l-7-2.9Z" fill="none" stroke="currentColor" stroke-width="1.8" stroke-linejoin="round"/>
    <path d="m8.8 12.3 2.1 2.1 4.5-4.8" fill="none" stroke="currentColor" stroke-width="1.8" stroke-linecap="round" stroke-linejoin="round"/>
  </symbol>
  <symbol id="assistance" viewBox="0 0 24 24">
    <path d="M4 13a8 8 0 0 1 16 0v4a2 2 0 0 1-2 2h-2v-6h4M4 13h4v6H6a2 2 0 0 1-2-2v-4Z" fill="none" stroke="currentColor" stroke-width="1.8" stroke-linecap="round" stroke-linejoin="round"/>
    <path d="M16 19c0 1.2-1.8 2-4 2" fill="none" stroke="currentColor" stroke-width="1.8" stroke-linecap="round"/>
  </symbol>
  <symbol id="service" viewBox="0 0 24 24">
    <path d="M20.5 6.5a5 5 0 0 1-6.4 6.4L6.8 20.2a2.1 2.1 0 0 1-3-3l7.3-7.3a5 5 0 0 1 6.4-6.4l-3.2 3.2 3.5 3.5 2.7-3.7Z" fill="none" stroke="currentColor" stroke-width="1.8" stroke-linecap="round" stroke-linejoin="round"/>
  </symbol>
  <symbol id="truck" viewBox="0 0 24 24">
    <path d="M3 6h11v10H3V6Zm11 4h3l4 4v2h-7v-6Z" fill="none" stroke="currentColor" stroke-width="1.8" stroke-linejoin="round"/>
    <path d="M7 19a2 2 0 1 0 0-4 2 2 0 0 0 0 4Zm11 0a2 2 0 1 0 0-4 2 2 0 0 0 0 4Z" fill="none" stroke="currentColor" stroke-width="1.8"/>
  </symbol>
  <symbol id="id" viewBox="0 0 24 24">
    <path d="M6 4h12a2 2 0 0 1 2 2v14H4V6a2 2 0 0 1 2-2Z" fill="none" stroke="currentColor" stroke-width="1.8" stroke-linejoin="round"/>
    <path d="M9 4V2h6v2M8 15h8M9 10a3 3 0 0 1 6 0" fill="none" stroke="currentColor" stroke-width="1.8" stroke-linecap="round"/>
  </symbol>
  <symbol id="calendar" viewBox="0 0 24 24">
    <path d="M5 5h14a2 2 0 0 1 2 2v13H3V7a2 2 0 0 1 2-2Z" fill="none" stroke="currentColor" stroke-width="1.8" stroke-linejoin="round"/>
    <path d="M8 3v4M16 3v4M3 10h18M8 14h.1M12 14h.1M16 14h.1M8 17h.1M12 17h.1" fill="none" stroke="currentColor" stroke-width="1.8" stroke-linecap="round"/>
  </symbol>
  <symbol id="clipboard" viewBox="0 0 24 24">
    <path d="M9 4h6l1 3H8l1-3Z" fill="none" stroke="currentColor" stroke-width="1.8" stroke-linejoin="round"/>
    <path d="M7 6H5v15h14V6h-2M8 12h8M8 16h6" fill="none" stroke="currentColor" stroke-width="1.8" stroke-linecap="round" stroke-linejoin="round"/>
  </symbol>
  <symbol id="speed" viewBox="0 0 24 24">
    <path d="M4 18a8 8 0 1 1 16 0H4Z" fill="none" stroke="currentColor" stroke-width="1.8" stroke-linejoin="round"/>
    <path d="m12 15 4-5M7 18h10" fill="none" stroke="currentColor" stroke-width="1.8" stroke-linecap="round"/>
  </symbol>
</svg>
